<svg
   xmlns="http://www.w3.org/2000/svg"
   width="50"
   viewBox="0 0 118.53333 139.70001"
   >
  <g
     id="layer1"
     transform="translate(-59.417854,39.611905)">
    <path
    style="fill:#ccc"
       d="m 63.827584,-39.012183 c -1.5875,0.811389 -3.38667,2.610556 -3.91584,3.880556 -0.42333,0.9525 -0.49389,7.796387 -0.49389,40.3930552 0,39.2641638 0.14111,44.3794408 1.27,49.8474948 4.1275,19.790832 18.0975,35.277782 37.711951,41.768892 7.055545,2.32833 12.594155,3.210285 20.284715,3.210285 17.74472,0 32.66722,-6.208895 44.23834,-18.379735 5.50333,-5.82083 9.70139,-12.84111 12.17083,-20.42583 2.8575,-8.889999 2.8575,-8.431386 2.8575,-54.7863858 V -34.002739 l -0.74083,-1.481665 c -0.98778,-1.940279 -1.62278,-2.645834 -3.21028,-3.457223 -1.27,-0.635 -2.99861,-0.670278 -55.20973,-0.670278 -48.365826,0.03528 -54.010266,0.07056 -54.962766,0.599722 z m 47.236936,16.192499 c 6.985,1.799166 13.22916,6.385277 16.75694,12.311946 6.27946,10.44222024 4.33917,24.41222 -4.62139,32.84361 -6.17361,5.820833 -14.25222,8.5725 -22.26027,7.549443 -10.371666,-1.27 -18.979446,-8.290276 -22.330836,-18.168053 -1.27,-3.7394468 -1.5875,-10.0541668 -0.70555,-14.0405568 2.82222,-12.6647232 15.063609,-21.9075002 28.045826,-21.2019452 1.65806,0.07056 3.95111,0.388056 5.11528,0.705556 z"
       id="path6"
       />
  </g>
</svg>
